<?xml version="1.0" encoding="UTF-8" standalone="no"?>
<!-- Created with Inkscape (http://www.inkscape.org/) -->

<svg
   id="svg4567"
   sodipodi:docname="logov2.svg"
   viewBox="0 0 400.00002 399.99999"
   version="1.1"
   inkscape:version="1.2.2 (b0a8486541, 2022-12-01)"
   width="400"
   height="400"
   xmlns:inkscape="http://www.inkscape.org/namespaces/inkscape"
   xmlns:sodipodi="http://sodipodi.sourceforge.net/DTD/sodipodi-0.dtd"
   xmlns="http://www.w3.org/2000/svg"
   xmlns:svg="http://www.w3.org/2000/svg"
   xmlns:rdf="http://www.w3.org/1999/02/22-rdf-syntax-ns#"
   xmlns:cc="http://creativecommons.org/ns#"
   xmlns:dc="http://purl.org/dc/elements/1.1/">
  <defs
     id="defs11" />
  <sodipodi:namedview
     id="base"
     bordercolor="#666666"
     inkscape:pageshadow="2"
     inkscape:window-y="-8"
     fit-margin-left="0"
     pagecolor="#ffffff"
     fit-margin-top="0"
     inkscape:window-maximized="1"
     inkscape:zoom="1.4"
     inkscape:window-x="-8"
     inkscape:window-height="1017"
     showgrid="false"
     borderopacity="1.0"
     inkscape:current-layer="layer1"
     inkscape:cx="-16.428571"
     inkscape:cy="223.57143"
     fit-margin-right="0"
     fit-margin-bottom="0"
     inkscape:window-width="1920"
     inkscape:pageopacity="0"
     inkscape:document-units="px"
     inkscape:showpageshadow="2"
     inkscape:pagecheckerboard="0"
     inkscape:deskcolor="#d1d1d1" />
  <g
     id="layer1"
     inkscape:label="Camada 1"
     inkscape:groupmode="layer"
     transform="translate(-179.03,-281.87)">
    <rect
       style="opacity:1;fill:#ffffff;fill-rule:nonzero;stroke-width:29.3949"
       id="rect1704"
       width="400"
       height="400"
       x="179.03"
       y="281.87" />
    <g
       id="g3841"
       inkscape:export-ydpi="500"
       inkscape:export-xdpi="500"
       inkscape:export-filename="E:\Meus Dados\Downloads\bitmap.png"
       transform="matrix(1.6065467,0.67457593,-0.67457593,1.6065467,-1181.9452,-291.02361)">
      <circle
         id="path3838"
         style="color:#000000;fill:#ffffff"
         transform="matrix(1.1439,0,0,1.1439,-153.08,-12.417)"
         cx="1015.3571"
         cy="86.290756"
         r="73.214287" />
      <circle
         id="path3039"
         style="color:#000000;fill:#999999"
         transform="matrix(0.61679,0,0,0.61679,628.08,-190.02)"
         cx="615.35712"
         cy="447.00504"
         r="85" />
      <path
         id="path2996"
         style="color:#000000;text-indent:0;text-transform:none;fill:#000000"
         inkscape:connector-curvature="0"
         d="m 1007.6,-63.188 c -20.144,0 -36.562,15.28 -36.562,34.062 0,11.597 6.2544,21.873 15.781,28.031 -14.079,3.3756 -26.887,10.078 -37.5,19.25 l -4.88,-4.905 1.4688,-1.5 c 1.1367,-1.1367 1.1367,-2.957 0,-4.0938 l -2.53,-2.5312 c -0.56837,-0.56837 -1.2895,-0.84375 -2.0312,-0.84375 -0.74175,0 -1.4941,0.27538 -2.0625,0.84375 l -11.67,11.656 c -1.1367,1.1367 -1.1367,2.9883 0,4.125 l 2.5312,2.5312 c 1.1367,1.1367 2.957,1.1367 4.0938,0 l 1.5,-1.5 4.875,4.875 c -13.835,15.722 -22.25,36.319 -22.25,58.875 0,49.231 40.019,89.25 89.25,89.25 49.23,0 89.25,-40.019 89.25,-89.25 0,-42.074 -29.24,-77.425 -68.469,-86.812 9.5132,-6.1602 15.781,-16.415 15.781,-28 0,-18.782 -16.418,-34.062 -36.562,-34.062 z m 0,6.4062 c 16.432,0 29.688,12.335 29.688,27.656 0,11.767 -7.8355,21.767 -18.906,25.781 v -15.562 h 6.9063 c 0.9793,0 1.75,-0.80191 1.75,-1.7812 v -18.594 c 0,-0.97934 -0.7707,-1.75 -1.75,-1.75 h -35.125 c -0.97934,0 -1.75,0.77066 -1.75,1.75 v 18.594 c 0,0.97934 0.77066,1.7812 1.75,1.7812 h 6.9375 v 15.656 c -11.216,-3.9453 -19.188,-14.009 -19.188,-25.875 0,-15.321 13.256,-27.656 29.688,-27.656 z m 0,63.875 c 43.475,0 78.594,35.119 78.594,78.594 0,43.475 -35.119,78.625 -78.594,78.625 -43.475,0 -78.594,-35.15 -78.594,-78.625 0,-43.475 35.119,-78.594 78.594,-78.594 z m -2.9375,6.9688 v 11.5 h 6.125 v -11.5 z m 2.625,17.812 c -1.4589,0 -5.1569,19.942 -9.0312,51.531 -0.17868,0.73381 -0.3125,1.4924 -0.3125,2.2812 0,0.01036 -3e-5,0.0209 0,0.03125 -10e-4,0.01077 10e-4,0.02048 0,0.03125 0.0334,5.297 4.3514,9.5938 9.6562,9.5938 5.3256,0 9.6562,-4.3306 9.6562,-9.6562 0,-0.96453 -0.1426,-1.9025 -0.4062,-2.7812 -0.01,-0.031 -0.022,-0.06289 -0.031,-0.09375 -4.2058,-31.232 -8.0818,-50.938 -9.5313,-50.938 z m -48.031,1 -4.3438,4.3438 8.1562,8.125 4.3125,-4.3125 -8.125,-8.1562 z m 96.969,0 -8.1562,8.1562 4.3437,4.3125 8.125,-8.125 -4.3125,-4.3438 z m -120.12,49.75 v 6.125 h 11.5 v -6.125 z m 131.75,0 v 6.125 h 11.5 v -6.125 z m -104.78,43.406 -8.1562,8.1562 4.3438,4.3125 8.125,-8.125 -4.3125,-4.3438 z m 89.344,0 -4.3437,4.3438 8.1562,8.125 4.3125,-4.3125 -8.125,-8.1562 z m -47.75,19.781 v 11.5 h 6.125 v -11.5 z" />
    </g>
    <rect
       style="opacity:1;mix-blend-mode:lighten;fill:#fe218b;fill-opacity:1;fill-rule:nonzero;stroke-width:13.031"
       id="rect223"
       width="400"
       height="167"
       x="179.03"
       y="281.87" />
    <rect
       style="mix-blend-mode:lighten;fill:#21b0fe;fill-opacity:1;fill-rule:nonzero;stroke-width:8.88731"
       id="rect223-5"
       width="400"
       height="77.678574"
       x="179.03"
       y="604.87" />
    <rect
       style="opacity:1;mix-blend-mode:lighten;fill:#fed700;fill-opacity:1;fill-rule:nonzero;stroke-width:12.5946"
       id="rect223-1"
       width="400"
       height="156"
       x="179.03"
       y="448.87" />
  </g>
  <metadata
     id="metadata8">
    <rdf:RDF>
      <cc:Work>
        <dc:format>image/svg+xml</dc:format>
        <dc:type
           rdf:resource="http://purl.org/dc/dcmitype/StillImage" />
        <cc:license
           rdf:resource="http://creativecommons.org/publicdomain/zero/1.0/" />
        <dc:publisher>
          <cc:Agent
             rdf:about="http://openclipart.org/">
            <dc:title>Openclipart</dc:title>
          </cc:Agent>
        </dc:publisher>
      </cc:Work>
      <cc:License
         rdf:about="http://creativecommons.org/publicdomain/zero/1.0/">
        <cc:permits
           rdf:resource="http://creativecommons.org/ns#Reproduction" />
        <cc:permits
           rdf:resource="http://creativecommons.org/ns#Distribution" />
        <cc:permits
           rdf:resource="http://creativecommons.org/ns#DerivativeWorks" />
      </cc:License>
    </rdf:RDF>
  </metadata>
</svg>
